<?xml version="1.0" encoding="UTF-8"?>
<svg id="Layer_2" data-name="Layer 2" xmlns="http://www.w3.org/2000/svg" viewBox="0 0 50 50">
  <defs>
    <style>
      .cls-1 {
        fill: #fff;
      }

      .cls-2 {
        fill: blue;
      }
    </style>
  </defs>
  <g id="Layer_1-2" data-name="Layer 1">
    <g>
      <rect class="cls-2" x="0" y="0" width="50" height="50" rx="25" ry="25"/>
      <g>
        <path class="cls-1" d="M47.28,20.19c-.69-1.23-1.66-2.18-2.9-2.84s-2.68-.99-4.31-.99h-4.93c-.16,0-.31.08-.4.21l-1.2,1.92c-.11.16,0,.38.2.38h6.33c1.22,0,2.25.23,3.13.7.82.44,1.44,1.04,1.89,1.86.48.85.72,1.93.72,3.21s-.24,2.37-.72,3.21c-.46.8-1.07,1.39-1.88,1.81-.88.45-1.94.68-3.16.68h-6.15c-.27,0-.43.3-.29.52l1.13,1.76c.09.14.24.22.41.22h4.89c1.63,0,3.06-.32,4.31-.96,1.24-.64,2.21-1.57,2.92-2.8.7-1.22,1.05-2.71,1.05-4.45s-.35-3.21-1.04-4.44h0Z"/>
        <g>
          <g>
            <path class="cls-1" d="M17.1,16.36v-1.41c0-.23-.19-.42-.42-.42h0c-.34,0-.54.37-.35.65l.77,1.18h0Z"/>
            <path class="cls-1" d="M17.1,32.94v1.56c0,.26-.21.46-.46.46h0c-.37,0-.59-.41-.39-.72l.85-1.31Z"/>
            <path class="cls-1" d="M17.95,31.81v2.52c0,.35.28.63.63.63h0c.35,0,.63-.28.63-.63v-2.52c0-.63-.81-.87-1.16-.34h0c-.07.1-.1.22-.1.34h0Z"/>
            <path class="cls-1" d="M19.21,17.47v-2.32c0-.35-.28-.63-.63-.63h0c-.35,0-.63.28-.63.63v2.32c0,.12.04.24.1.34h0c.34.52,1.16.28,1.16-.34h0Z"/>
            <path class="cls-1" d="M20.06,28.58v5.76c0,.35.28.63.63.63h0c.35,0,.63-.28.63-.63v-5.76c0-.63-.81-.87-1.16-.34h0c-.07.1-.1.22-.1.34h0Z"/>
            <path class="cls-1" d="M21.32,20.7v-5.55c0-.35-.28-.63-.63-.63h0c-.35,0-.63.28-.63.63v5.55c0,.12.04.24.1.34h0c.34.52,1.16.28,1.16-.34Z"/>
            <path class="cls-1" d="M23.43,16.33v8.77c0,.35-.28.63-.63.63h0c-.35,0-.63-.28-.63-.63v-8.78c0-.38.31-.63.63-.63.18,0,.36.08.49.25.09.11.13.25.13.39h0Z"/>
            <path class="cls-1" d="M22.81,26.99c.35,0,.63.28.63.63v5.74c0,.08-.01.16-.04.23-.03.07-.07.14-.12.2-.39.42-1.09.14-1.09-.43v-5.74c0-.35.28-.63.63-.63h0Z"/>
            <path class="cls-1" d="M24.29,19.64v10.42c0,.63.83.87,1.16.33h0c.06-.1.1-.22.1-.33v-10.42c0-.12-.03-.24-.1-.34h0c-.34-.53-1.16-.29-1.16.34Z"/>
          </g>
          <g>
            <path class="cls-1" d="M32.74,16.36v-1.41c0-.23.19-.42.42-.42h0c.34,0,.54.37.35.65l-.77,1.18h0Z"/>
            <path class="cls-1" d="M32.74,32.94v1.56c0,.26.21.46.46.46h0c.37,0,.59-.41.39-.72l-.85-1.31Z"/>
            <path class="cls-1" d="M31.89,31.81v2.52c0,.35-.28.63-.63.63h0c-.35,0-.63-.28-.63-.63v-2.52c0-.63.81-.87,1.16-.34h0c.07.1.1.22.1.34h0Z"/>
            <path class="cls-1" d="M30.63,17.47v-2.32c0-.35.28-.63.63-.63h0c.35,0,.63.28.63.63v2.32c0,.12-.04.24-.1.34h0c-.34.52-1.16.28-1.16-.34h0Z"/>
            <path class="cls-1" d="M29.77,28.58v5.76c0,.35-.28.63-.63.63h0c-.35,0-.63-.28-.63-.63v-5.76c0-.63.81-.87,1.16-.34h0c.07.1.1.22.1.34h0Z"/>
            <path class="cls-1" d="M28.52,20.7v-5.55c0-.35.28-.63.63-.63h0c.35,0,.63.28.63.63v5.55c0,.12-.04.24-.1.34h0c-.34.52-1.16.28-1.16-.34h0Z"/>
            <path class="cls-1" d="M27.66,16.33v5.45c0,.35-.28.63-.63.63h0c-.35,0-.63-.28-.63-.63v-5.44c0-.14.04-.28.13-.39.13-.17.31-.25.49-.25.32,0,.63.25.63.63h0Z"/>
            <path class="cls-1" d="M27.03,23.66c.35,0,.63.28.63.63v9.07c0,.57-.7.85-1.09.43-.05-.06-.1-.13-.12-.2-.03-.07-.04-.15-.04-.23v-9.07c0-.35.28-.63.63-.63h0Z"/>
          </g>
        </g>
      </g>
      <path class="cls-1" d="M16.65,20.19c-.69-1.23-1.66-2.18-2.9-2.84s-2.68-.99-4.31-.99h-4.93c-.16,0-.31.08-.4.21l-1.2,1.92c-.11.16,0,.38.2.38h6.33c1.22,0,2.25.23,3.13.7.82.44,1.44,1.04,1.89,1.86.48.85.72,1.93.72,3.21s-.24,2.37-.72,3.21c-.46.8-1.07,1.39-1.88,1.81-.88.45-1.94.68-3.16.68H3.27c-.27,0-.43.3-.29.52l1.13,1.76c.09.14.24.22.41.22h4.89c1.63,0,3.06-.32,4.31-.96,1.24-.64,2.21-1.57,2.92-2.8.7-1.22,1.05-2.71,1.05-4.45s-.35-3.21-1.04-4.44h0Z"/>
    </g>
  </g>
</svg>