<?xml version="1.0" encoding="UTF-8"?>
<svg id="Layer_2" data-name="Layer 2" xmlns="http://www.w3.org/2000/svg" xmlns:xlink="http://www.w3.org/1999/xlink" viewBox="0 0 1019.4 210">
  <defs>
    <style>
      .cls-1 {
        fill: url(#linear-gradient-15);
      }

      .cls-2 {
        fill: url(#linear-gradient-13);
      }

      .cls-3 {
        fill: url(#linear-gradient-2);
      }

      .cls-4 {
        fill: url(#linear-gradient-10);
      }

      .cls-5 {
        fill: url(#linear-gradient-12);
      }

      .cls-6 {
        fill: blue;
      }

      .cls-7 {
        fill: url(#linear-gradient-4);
      }

      .cls-8 {
        fill: url(#linear-gradient-3);
      }

      .cls-9 {
        fill: url(#linear-gradient-5);
      }

      .cls-10 {
        fill: url(#linear-gradient-8);
      }

      .cls-11 {
        fill: url(#linear-gradient-14);
      }

      .cls-12 {
        fill: url(#linear-gradient-17);
      }

      .cls-13 {
        fill: url(#linear-gradient-7);
      }

      .cls-14 {
        fill: url(#linear-gradient-9);
      }

      .cls-15 {
        fill: url(#linear-gradient-11);
      }

      .cls-16 {
        fill: url(#linear-gradient-6);
      }

      .cls-17 {
        fill: url(#linear-gradient-16);
      }

      .cls-18 {
        fill: url(#linear-gradient);
      }
    </style>
    <linearGradient id="linear-gradient" x1="690.18" y1="18.85" x2="690.18" y2="0" gradientUnits="userSpaceOnUse">
      <stop offset="0" stop-color="#fff"/>
      <stop offset="1" stop-color="blue"/>
    </linearGradient>
    <linearGradient id="linear-gradient-2" x1="689.74" y1="189.18" x2="689.74" y2="210" xlink:href="#linear-gradient"/>
    <linearGradient id="linear-gradient-3" x1="709.77" y1="171.17" x2="709.77" y2="210" xlink:href="#linear-gradient"/>
    <linearGradient id="linear-gradient-4" x1="709.77" y1="36.8" x2="709.77" y2="0" xlink:href="#linear-gradient"/>
    <linearGradient id="linear-gradient-5" x1="731.48" y1="137.91" x2="731.48" y2="210" xlink:href="#linear-gradient"/>
    <linearGradient id="linear-gradient-6" x1="731.48" y1="69.91" x2="731.48" y2="0" xlink:href="#linear-gradient"/>
    <linearGradient id="linear-gradient-7" x1="753.19" y1="115.15" x2="753.19" y2="12.05" xlink:href="#linear-gradient"/>
    <linearGradient id="linear-gradient-8" x1="753.19" y1="128.07" x2="753.19" y2="200.01" xlink:href="#linear-gradient"/>
    <linearGradient id="linear-gradient-9" x1="774.91" y1="166.04" x2="774.91" y2="46.07" gradientUnits="userSpaceOnUse">
      <stop offset="0" stop-color="#2121ff"/>
      <stop offset="0" stop-color="#2626ff"/>
      <stop offset=".15" stop-color="#7272ff"/>
      <stop offset=".27" stop-color="#aeaeff"/>
      <stop offset=".38" stop-color="#dadaff"/>
      <stop offset=".46" stop-color="#f5f5ff"/>
      <stop offset=".51" stop-color="#fff"/>
      <stop offset=".55" stop-color="#f4f4ff"/>
      <stop offset=".62" stop-color="#d9d9ff"/>
      <stop offset=".72" stop-color="#acacff"/>
      <stop offset=".83" stop-color="#6d6dff"/>
      <stop offset=".95" stop-color="#1f1fff"/>
      <stop offset="1" stop-color="blue"/>
    </linearGradient>
    <linearGradient id="linear-gradient-10" x1="859.63" x2="859.63" xlink:href="#linear-gradient"/>
    <linearGradient id="linear-gradient-11" x1="860.07" y1="189.18" x2="860.07" y2="210" xlink:href="#linear-gradient"/>
    <linearGradient id="linear-gradient-12" x1="840.04" y1="171.17" x2="840.04" y2="210" xlink:href="#linear-gradient"/>
    <linearGradient id="linear-gradient-13" x1="840.04" y1="36.8" x2="840.04" y2="0" xlink:href="#linear-gradient"/>
    <linearGradient id="linear-gradient-14" x1="818.33" y1="137.91" x2="818.33" y2="210" xlink:href="#linear-gradient"/>
    <linearGradient id="linear-gradient-15" x1="818.33" y1="69.91" x2="818.33" y2="0" xlink:href="#linear-gradient"/>
    <linearGradient id="linear-gradient-16" x1="796.62" y1="81" x2="796.62" y2="12.05" xlink:href="#linear-gradient"/>
    <linearGradient id="linear-gradient-17" x1="796.62" y1="93.92" x2="796.62" y2="200.01" xlink:href="#linear-gradient"/>
  </defs>
  <g id="Layer_1-2" data-name="Layer 1">
    <g>
      <g>
        <polygon class="cls-6" points="38.83 68.21 38.83 89.66 86.68 89.66 86.68 127.42 38.83 127.42 38.83 176.55 0 176.55 0 30.45 96.12 30.45 96.12 68.21 38.83 68.21"/>
        <path class="cls-6" d="M146.53,177.62c-6.44,0-12.48-1.18-18.13-3.54-5.65-2.36-10.23-6.26-13.73-11.69-3.51-5.43-5.26-12.87-5.26-22.31V30.45h38.83v95.9c0,5.87.82,9.51,2.47,10.94,1.64,1.43,4.04,2.15,7.19,2.15v37.76c-1.15.14-2.93.25-5.36.32-2.43.07-4.43.11-6.01.11Z"/>
        <path class="cls-6" d="M221.62,179.55c-11.16,0-20.95-2.4-29.39-7.19-8.44-4.79-15.06-11.37-19.85-19.74-4.79-8.37-7.19-17.91-7.19-28.64s2.39-20.27,7.19-28.64c4.79-8.37,11.4-14.94,19.85-19.74,8.44-4.79,18.24-7.19,29.39-7.19s20.99,2.4,29.5,7.19c8.51,4.79,15.13,11.37,19.85,19.74s7.08,17.91,7.08,28.64-2.36,20.27-7.08,28.64c-4.72,8.37-11.34,14.95-19.85,19.74-8.51,4.79-18.34,7.19-29.5,7.19ZM221.62,141.58c4.86,0,8.94-1.64,12.23-4.93,3.29-3.29,4.93-7.58,4.93-12.87s-1.65-9.55-4.93-12.77c-3.29-3.22-7.37-4.83-12.23-4.83s-8.9,1.61-12.12,4.83c-3.22,3.22-4.83,7.48-4.83,12.77s1.61,9.58,4.83,12.87c3.22,3.29,7.26,4.93,12.12,4.93Z"/>
        <polygon class="cls-6" points="443.89 71.42 413.21 176.55 377.6 176.55 361.29 131.52 344.99 176.55 307.44 176.55 276.98 71.42 314.74 71.42 329.57 125.19 347.13 71.42 375.45 71.42 393.19 125.32 408.06 71.42 443.89 71.42"/>
        <path class="cls-6" d="M573.9,64.45c-6.15-10.94-14.73-19.34-25.74-25.21-11.02-5.86-23.75-8.79-38.19-8.79h-49.13v146.1h48.91c14.45,0,27.18-2.82,38.19-8.47,11.02-5.65,19.63-13.91,25.86-24.78,6.22-10.87,9.33-24.03,9.33-39.48s-3.08-28.43-9.23-39.37ZM550.84,131.6c-4.36,7.23-10.23,12.59-17.59,16.09-7.37,3.51-15.7,5.26-25,5.26h-22.52V54.05h22.74c9.29,0,17.62,1.86,24.99,5.57,7.37,3.72,13.2,9.27,17.49,16.63,4.29,7.37,6.43,16.56,6.43,27.57s-2.18,20.56-6.54,27.78Z"/>
        <path class="cls-6" d="M692.97,95.77c-4.29-8.22-10.33-14.65-18.12-19.3-7.8-4.65-16.92-6.98-27.36-6.98s-19.31,2.29-27.03,6.87c-7.73,4.58-13.77,10.98-18.13,19.2-4.37,8.23-6.54,17.84-6.54,28.86s2.17,20.38,6.54,28.53c4.36,8.15,10.4,14.48,18.13,18.99,7.72,4.5,16.73,6.76,27.03,6.76,11.59,0,21.31-2.29,29.18-6.87,7.86-4.58,14.16-11.3,18.88-20.17l-17.81-10.72c-3.15,4.86-6.9,8.94-11.26,12.23-4.37,3.29-10.48,4.93-18.35,4.93-8.72,0-15.55-2.61-20.49-7.83-4.48-4.75-6.93-11-7.33-18.77h78.67c.14-1,.25-2.15.32-3.44.07-1.28.11-2.57.11-3.86,0-10.73-2.15-20.2-6.44-28.43ZM620.72,111.54c.94-5.76,3.24-10.59,6.92-14.48,4.94-5.22,11.62-7.83,20.07-7.83,9.29,0,16.23,3.15,20.81,9.44,2.67,3.68,4.56,7.97,5.66,12.87h-53.46Z"/>
      </g>
      <g>
        <path class="cls-6" d="M1008.72,58.25c-7.13-12.67-17.07-22.41-29.84-29.21-12.77-6.8-27.51-10.19-44.25-10.19h-50.65c-1.66,0-3.21.82-4.14,2.19l-12.36,19.7c-1.13,1.66.06,3.9,2.07,3.9h65.08c12.56,0,23.07,2.35,32.14,7.17,8.38,4.47,14.75,10.71,19.46,19.08,4.89,8.71,7.37,19.81,7.37,32.97s-2.49,24.35-7.4,32.93c-4.72,8.24-11.04,14.32-19.35,18.57-9.01,4.63-19.94,6.97-32.46,6.97h-63.19c-2.77,0-4.44,3.06-2.94,5.39l11.63,18.11c.92,1.43,2.5,2.3,4.21,2.3h50.29c16.74,0,31.49-3.27,44.25-9.82,12.77-6.55,22.74-16.12,29.96-28.72,7.21-12.58,10.81-27.85,10.81-45.74s-3.56-32.94-10.68-45.62Z"/>
        <g>
          <g>
            <path class="cls-18" d="M694.52,18.85V4.33c0-2.39-1.94-4.33-4.33-4.33h0c-3.45,0-5.51,3.83-3.62,6.71l7.96,12.14Z"/>
            <path class="cls-3" d="M694.52,189.18v16.05c0,2.64-2.14,4.77-4.77,4.77h0c-3.79,0-6.07-4.21-4-7.38l8.77-13.44Z"/>
            <path class="cls-8" d="M703.31,177.64v25.9c0,3.57,2.89,6.46,6.46,6.46h0c3.57,0,6.46-2.89,6.46-6.46v-25.9c0-6.43-8.36-8.91-11.87-3.53h0c-.69,1.05-1.05,2.28-1.05,3.53Z"/>
            <path class="cls-7" d="M716.23,30.33V6.46C716.23,2.89,713.34,0,709.77,0h0C706.2,0,703.31,2.89,703.31,6.46v23.87c0,1.26.37,2.49,1.06,3.54h0c3.52,5.37,11.87,2.88,11.87-3.54Z"/>
            <path class="cls-9" d="M725.02,144.39v59.15c0,3.57,2.89,6.46,6.46,6.46h0c3.57,0,6.46-2.89,6.46-6.46v-59.15c0-6.43-8.36-8.91-11.87-3.53h0c-.69,1.05-1.05,2.28-1.05,3.53Z"/>
            <path class="cls-16" d="M737.95,63.44V6.46C737.95,2.89,735.05,0,731.48,0h0C727.92,0,725.02,2.89,725.02,6.46v56.98c0,1.26.37,2.49,1.06,3.54h0c3.52,5.37,11.87,2.88,11.87-3.54Z"/>
            <path class="cls-13" d="M759.65,18.61v90.08c0,3.57-2.89,6.46-6.46,6.46h0c-3.57,0-6.46-2.89-6.46-6.46V18.53c0-3.95,3.22-6.47,6.52-6.47,1.85,0,3.72.79,5.08,2.56.88,1.14,1.32,2.56,1.32,4Z"/>
            <path class="cls-10" d="M753.19,128.07c3.57,0,6.46,2.89,6.46,6.46v59c0,.81-.15,1.62-.45,2.36-.29.75-.72,1.44-1.28,2.04-3.99,4.31-11.2,1.48-11.2-4.39v-59c0-3.57,2.89-6.46,6.46-6.46h0Z"/>
            <path class="cls-14" d="M768.45,52.54v107.02c0,6.49,8.49,8.93,11.94,3.43h0c.64-1.03.99-2.22.99-3.43V52.54c0-1.22-.35-2.42-1-3.45h0c-3.46-5.48-11.93-3.03-11.93,3.45Z"/>
          </g>
          <g>
            <path class="cls-4" d="M855.29,18.85V4.33c0-2.39,1.94-4.33,4.33-4.33h0c3.45,0,5.51,3.83,3.62,6.71l-7.96,12.14Z"/>
            <path class="cls-15" d="M855.29,189.18v16.05c0,2.64,2.14,4.77,4.77,4.77h0c3.79,0,6.07-4.21,4-7.38l-8.77-13.44Z"/>
            <path class="cls-5" d="M846.5,177.64v25.9c0,3.57-2.89,6.46-6.46,6.46h0c-3.57,0-6.46-2.89-6.46-6.46v-25.9c0-6.43,8.36-8.91,11.87-3.53h0c.69,1.05,1.05,2.28,1.05,3.53Z"/>
            <path class="cls-2" d="M833.58,30.33V6.46C833.58,2.89,836.47,0,840.04,0h0C843.61,0,846.5,2.89,846.5,6.46v23.87c0,1.26-.37,2.49-1.06,3.54h0c-3.52,5.37-11.87,2.88-11.87-3.54Z"/>
            <path class="cls-11" d="M824.79,144.39v59.15c0,3.57-2.89,6.46-6.46,6.46h0c-3.57,0-6.46-2.89-6.46-6.46v-59.15c0-6.43,8.36-8.91,11.87-3.53h0c.69,1.05,1.05,2.28,1.05,3.53Z"/>
            <path class="cls-1" d="M811.87,63.44V6.46C811.87,2.89,814.76,0,818.33,0h0C821.9,0,824.79,2.89,824.79,6.46v56.98c0,1.26-.37,2.49-1.06,3.54h0c-3.52,5.37-11.87,2.88-11.87-3.54Z"/>
            <path class="cls-17" d="M803.08,18.53v56.01c0,3.57-2.89,6.46-6.46,6.46h0c-3.57,0-6.46-2.89-6.46-6.46V18.61c0-1.44.45-2.86,1.32-4,1.35-1.77,3.23-2.56,5.08-2.56,3.31,0,6.52,2.52,6.52,6.47Z"/>
            <path class="cls-12" d="M796.62,93.92c3.57,0,6.46,2.89,6.46,6.46v93.15c0,5.87-7.2,8.7-11.2,4.39-.56-.6-.99-1.29-1.28-2.04-.29-.74-.45-1.54-.45-2.36v-93.15c0-3.57,2.89-6.46,6.46-6.46h0Z"/>
          </g>
        </g>
      </g>
    </g>
  </g>
</svg>